<svg xmlns="http://www.w3.org/2000/svg" viewBox="0 0 1200 900" fill="none">
  <rect width="1200" height="900" fill="#EEF2F6" />
  <rect y="650" width="1200" height="250" fill="#D6DDE7" />
  <rect x="120" y="180" width="180" height="460" rx="26" fill="#1E293B" />
  <rect x="336" y="180" width="180" height="460" rx="26" fill="#1E293B" />
  <rect x="552" y="180" width="180" height="460" rx="26" fill="#D1911D" />
  <rect x="768" y="180" width="180" height="460" rx="26" fill="#1E293B" />
  <rect x="984" y="180" width="96" height="460" rx="26" fill="#1E293B" />
  <rect x="160" y="244" width="100" height="160" rx="18" fill="#E2E8F0" />
  <rect x="376" y="244" width="100" height="160" rx="18" fill="#E2E8F0" />
  <rect x="592" y="244" width="100" height="160" rx="18" fill="#FEF3C7" />
  <rect x="808" y="244" width="100" height="160" rx="18" fill="#E2E8F0" />
  <path d="M212 468H208" stroke="#E2E8F0" stroke-width="14" stroke-linecap="round" />
  <path d="M428 468H424" stroke="#E2E8F0" stroke-width="14" stroke-linecap="round" />
  <path d="M644 468H640" stroke="#FEF3C7" stroke-width="14" stroke-linecap="round" />
  <path d="M860 468H856" stroke="#E2E8F0" stroke-width="14" stroke-linecap="round" />
  <text x="120" y="782" fill="#0F172A" font-family="Arial, sans-serif" font-size="62" font-weight="700">
    BAÑOS QUÍMICOS
  </text>
  <text x="120" y="832" fill="#475569" font-family="Arial, sans-serif" font-size="30">
    Cabinas sanitarias para obras, eventos y operaciones temporales.
  </text>
</svg>