<svg xmlns="http://www.w3.org/2000/svg" viewBox="0 0 1600 1200" fill="none">
  <rect width="1600" height="1200" fill="#0F172A" />
  <rect y="800" width="1600" height="400" fill="#111827" />
  <path d="M0 840H1600" stroke="#1F2937" stroke-width="18" />
  <rect x="132" y="320" width="564" height="376" rx="40" fill="#1E293B" />
  <rect x="752" y="246" width="716" height="450" rx="46" fill="#1E293B" />
  <rect x="180" y="372" width="208" height="140" rx="24" fill="#E2E8F0" />
  <rect x="428" y="372" width="208" height="140" rx="24" fill="#E2E8F0" />
  <rect x="804" y="322" width="274" height="160" rx="28" fill="#E2E8F0" />
  <rect x="1124" y="322" width="274" height="160" rx="28" fill="#E2E8F0" />
  <rect x="132" y="320" width="564" height="56" rx="28" fill="#D1911D" />
  <rect x="752" y="246" width="716" height="56" rx="28" fill="#D1911D" />
  <rect x="194" y="696" width="116" height="128" rx="22" fill="#334155" />
  <rect x="520" y="696" width="116" height="128" rx="22" fill="#334155" />
  <rect x="858" y="696" width="128" height="138" rx="22" fill="#334155" />
  <rect x="1224" y="696" width="128" height="138" rx="22" fill="#334155" />
  <path d="M1090 190V40" stroke="#475569" stroke-width="18" stroke-linecap="round" />
  <path d="M1090 40H1326" stroke="#475569" stroke-width="18" stroke-linecap="round" />
  <path d="M1326 40L1190 176" stroke="#64748B" stroke-width="18" stroke-linecap="round" />
  <circle cx="1190" cy="176" r="22" fill="#D1911D" />
  <path d="M240 958H1372" stroke="#D1911D" stroke-width="22" stroke-linecap="round" stroke-dasharray="2 46" />
  <text x="132" y="1034" fill="#F8FAFC" font-family="Arial, sans-serif" font-size="88" font-weight="700">
    CENOZ
  </text>
  <text x="132" y="1112" fill="#CBD5E1" font-family="Arial, sans-serif" font-size="40">
    Trailers petroleros, módulos, campamentos y soluciones industriales.
  </text>
</svg>