<svg xmlns="http://www.w3.org/2000/svg" viewBox="0 0 1200 900" fill="none">
  <rect width="1200" height="900" fill="#EEF2F7" />
  <rect y="660" width="1200" height="240" fill="#D7DEE8" />
  <rect x="134" y="220" width="932" height="160" rx="34" fill="#1E293B" />
  <rect x="202" y="418" width="864" height="188" rx="34" fill="#0F172A" />
  <rect x="134" y="220" width="932" height="46" rx="23" fill="#D1911D" />
  <rect x="202" y="418" width="864" height="46" rx="23" fill="#D1911D" />
  <rect x="194" y="278" width="206" height="72" rx="18" fill="#E2E8F0" />
  <rect x="434" y="278" width="206" height="72" rx="18" fill="#E2E8F0" />
  <rect x="674" y="278" width="206" height="72" rx="18" fill="#E2E8F0" />
  <rect x="262" y="480" width="240" height="82" rx="18" fill="#E2E8F0" />
  <rect x="550" y="480" width="240" height="82" rx="18" fill="#E2E8F0" />
  <rect x="838" y="480" width="156" height="82" rx="18" fill="#1E293B" />
  <path d="M132 742H1066" stroke="#0F172A" stroke-width="22" stroke-linecap="round" />
  <text x="120" y="790" fill="#0F172A" font-family="Arial, sans-serif" font-size="62" font-weight="700">
    OBRADORES MODULARES
  </text>
  <text x="120" y="840" fill="#475569" font-family="Arial, sans-serif" font-size="30">
    Infraestructura móvil para montar una base operativa ordenada.
  </text>
</svg>