<svg xmlns="http://www.w3.org/2000/svg" viewBox="0 0 1200 900" fill="none">
  <rect width="1200" height="900" fill="#EEF2F6" />
  <rect y="670" width="1200" height="230" fill="#D8E0EA" />
  <rect x="112" y="318" width="698" height="244" rx="34" fill="#0F172A" />
  <rect x="112" y="318" width="698" height="44" rx="22" fill="#D1911D" />
  <rect x="170" y="388" width="198" height="100" rx="24" fill="#E2E8F0" />
  <rect x="404" y="388" width="198" height="100" rx="24" fill="#E2E8F0" />
  <rect x="838" y="376" width="170" height="156" rx="28" fill="#1E293B" />
  <rect x="996" y="430" width="92" height="42" rx="21" fill="#1E293B" />
  <circle cx="306" cy="670" r="60" fill="#0F172A" />
  <circle cx="732" cy="670" r="60" fill="#0F172A" />
  <circle cx="306" cy="670" r="22" fill="#E2E8F0" />
  <circle cx="732" cy="670" r="22" fill="#E2E8F0" />
  <circle cx="890" cy="670" r="48" fill="#1E293B" />
  <circle cx="1018" cy="670" r="48" fill="#1E293B" />
  <circle cx="890" cy="670" r="18" fill="#E2E8F0" />
  <circle cx="1018" cy="670" r="18" fill="#E2E8F0" />
  <path d="M850 428H996" stroke="#E2E8F0" stroke-width="18" stroke-linecap="round" />
  <path d="M850 476H956" stroke="#94A3B8" stroke-width="12" stroke-linecap="round" />
  <text x="120" y="788" fill="#0F172A" font-family="Arial, sans-serif" font-size="62" font-weight="700">
    TRAILERS PETROLEROS
  </text>
  <text x="120" y="838" fill="#475569" font-family="Arial, sans-serif" font-size="30">
    Soluciones para operaciones energéticas e industriales.
  </text>
</svg>